<?xml version="1.0" encoding="UTF-8" standalone="no"?>
<svg width="175px" height="18px" viewBox="0 0 175 18" version="1.1" xmlns="http://www.w3.org/2000/svg" xmlns:xlink="http://www.w3.org/1999/xlink">
    <!-- Generator: Sketch 3.8.2 (29753) - http://www.bohemiancoding.com/sketch -->
    <title>Group</title>
    <desc>Created with Sketch.</desc>
    <defs></defs>
    <g id="Symbols" stroke="none" stroke-width="1" fill="none" fill-rule="evenodd">
        <g id="Header" transform="translate(-608.000000, -9.000000)" fill="#333743">
            <g id="Group" transform="translate(608.000000, 9.000000)">
                <path d="M76.9625815,0.671891192 L76.7006519,0.671891192 L76.7006519,0.932124352 L76.7006519,11.9879534 L76.7031617,12.1346179 C76.7058996,12.263601 76.7058996,12.3767163 76.7111473,12.4796308 C76.5735658,12.3329663 76.4181877,12.1654469 76.2235658,11.9618847 L66.2209583,0.759391192 L66.142927,0.671891192 L66.0263364,0.671891192 L63.2601043,0.671891192 L62.9956649,0.671891192 L62.9956649,0.932124352 L62.9956649,17.1345855 L62.9956649,17.3920984 L63.2601043,17.3920984 L66.0678618,17.3920984 L66.3325293,17.3920984 L66.3325293,17.1345855 L66.3325293,6.41628886 C66.3325293,6.05042098 66.3300196,5.75686528 66.3245437,5.50456606 C66.3455346,5.52768782 66.3662973,5.55330311 66.3868318,5.57393135 L76.9183181,17.3048251 L76.9936115,17.3923251 L77.1104302,17.3923251 L79.7728488,17.3923251 L80.0347784,17.3923251 L80.0347784,17.1348122 L80.0347784,0.932124352 L80.0347784,0.671891192 L79.7728488,0.671891192 L76.9625815,0.671891192 L76.9625815,0.671891192 Z" id="Shape"></path>
                <path d="M108.243774,2.52389896 C105.969687,0.671891192 103.706323,0.671891192 101.886506,0.671891192 L94.7669492,0.671891192 L94.5075293,0.671891192 L94.5075293,0.932124352 L94.5075293,17.1345855 L94.5075293,17.3920984 L94.7669492,17.3920984 L100.38794,17.3920984 C102.861441,17.3920984 106.255117,17.3920984 108.689831,14.9915155 C109.573957,14.0949806 111.057008,12.1194301 111.057008,8.92273316 C111.05678,5.35223446 109.293774,3.38416451 108.243774,2.52389896 M100.914081,14.3216645 L97.9479791,14.3216645 L97.9479791,3.70378886 L101.982334,3.70378886 C103.322784,3.71920337 104.841884,3.73983161 106.130769,5.00200777 C106.675163,5.53018135 107.588038,6.73545984 107.588038,8.85812824 C107.588038,9.81926813 107.401402,11.2099741 106.49925,12.3744495 C105.085789,14.1697863 103.053096,14.3216645 100.914081,14.3216645" id="Shape"></path>
                <path d="M174.464276,16.9697863 L169.110007,10.8749352 C169.462973,10.8028497 169.830769,10.7228303 170.246023,10.6185557 C172.426565,10.0699806 173.924674,8.31431347 173.924674,5.84935233 C173.924674,3.77066062 172.921447,2.59462435 172.325261,2.07823834 C170.823957,0.731055699 169.017145,0.697506477 167.562386,0.671664508 L167.557138,0.671664508 L167.544133,0.671664508 L157.704661,0.671664508 L157.445698,0.671664508 L157.445698,0.931897668 L157.445698,17.1343588 L157.445698,17.3918718 L157.704661,17.3918718 L160.606421,17.3918718 L160.867894,17.3918718 L160.867894,17.1343588 L160.867894,11.1945596 L165.045078,11.2022668 L170.253553,17.3073187 L170.334094,17.3998057 L170.453194,17.3998057 L174.264635,17.3998057 L174.840059,17.3998057 L174.464276,16.9697863 L174.464276,16.9697863 Z M160.844622,8.17308938 L160.844622,3.74889896 L167.75176,3.75025907 C168.703194,3.76839378 169.522523,3.78358161 170.04661,4.61301813 C170.284811,4.97117876 170.411897,5.43996114 170.411897,5.93458549 C170.411897,6.44734456 170.276825,6.87487047 170.004857,7.21466969 C169.281584,8.17331606 167.871089,8.17331606 166.839113,8.17331606 L160.844622,8.17331606 L160.844622,8.17308938 Z" id="Shape"></path>
                <path d="M134.023077,0.0124676166 C129.050293,0.0124676166 125.002934,4.03588083 125.002934,8.98167098 C125.002934,13.9274611 129.050293,17.9486075 134.023077,17.9486075 C139.00088,17.9486075 143.048468,13.9274611 143.048468,8.98167098 C143.048468,4.03588083 139.001108,0.0124676166 134.023077,0.0124676166 M134.023077,14.5896049 C130.909355,14.5896049 128.373338,12.0752267 128.373338,8.98167098 C128.373338,5.88539508 130.909126,3.37124352 134.023077,3.37124352 C137.139309,3.37124352 139.66985,5.88539508 139.66985,8.98167098 C139.66985,12.0754534 137.139309,14.5896049 134.023077,14.5896049" id="Shape"></path>
                <path d="M40.6360495,0.0124676166 C35.6657757,0.0124676166 31.6211538,4.03588083 31.6211538,8.98167098 C31.6211538,13.9274611 35.6660039,17.9486075 40.6360495,17.9486075 C45.6140808,17.9486075 49.6664602,13.9274611 49.6664602,8.98167098 C49.6664602,4.03588083 45.6138527,0.0124676166 40.6360495,0.0124676166 M40.6360495,14.5896049 C37.5273468,14.5896049 34.994296,12.0752267 34.994296,8.98167098 C34.994296,5.88539508 37.5273468,3.37124352 40.6360495,3.37124352 C43.7525098,3.37124352 46.2910365,5.88539508 46.2910365,8.98167098 C46.2908083,12.0754534 43.7525098,14.5896049 40.6360495,14.5896049" id="Shape"></path>
                <path d="M14.4469687,11.2741256 L14.218807,11.1610104 L14.0994785,11.3876943 L14.0374185,11.511237 C13.0574641,13.409715 11.1361147,14.5896049 9.0256193,14.5896049 C5.911897,14.5896049 3.37633638,12.0752267 3.37633638,8.98167098 C3.37633638,5.88539508 5.911897,3.37124352 9.0256193,3.37124352 C11.0300196,3.37124352 12.8420795,4.41716321 13.8818123,6.17147021 L13.952086,6.2873057 L14.0841917,6.50378886 L14.3045958,6.38024611 L16.8116362,4.99180699 L17.0475554,4.85783679 L16.9074641,4.62843264 L16.832399,4.51509067 C15.2275098,1.73821244 12.2353977,0.0124676166 9.02539113,0.0124676166 C4.05032595,0.0124676166 0.000228161669,4.03588083 0.000228161669,8.98167098 C0.000228161669,13.9274611 4.05009778,17.9486075 9.02539113,17.9486075 C12.4375489,17.9486075 15.5229791,16.0576101 17.0708279,13.0155117 L17.133116,12.8958225 L17.2547262,12.6600712 L17.0162973,12.5415155 L14.4469687,11.2741256 L14.4469687,11.2741256 Z" id="Shape"></path>
            </g>
        </g>
    </g>
</svg>
